<?xml version="1.0" encoding="UTF-8" standalone="no"?>
<svg
   xmlns:dc="http://purl.org/dc/elements/1.1/"
   xmlns:cc="http://creativecommons.org/ns#"
   xmlns:rdf="http://www.w3.org/1999/02/22-rdf-syntax-ns#"
   xmlns:svg="http://www.w3.org/2000/svg"
   xmlns="http://www.w3.org/2000/svg"
   xmlns:sodipodi="http://sodipodi.sourceforge.net/DTD/sodipodi-0.dtd"
   xmlns:inkscape="http://www.inkscape.org/namespaces/inkscape"
   width="32"
   height="32"
   viewBox="0 0 8.4666665 8.4666669"
   version="1.1"
   id="svg8"
   inkscape:version="1.0.2-2 (e86c870879, 2021-01-15)"
   sodipodi:docname="SimpleState.svg">
  <defs
     id="defs2" />
  <sodipodi:namedview
     id="base"
     pagecolor="#ffffff"
     bordercolor="#666666"
     borderopacity="1.0"
     inkscape:pageopacity="0.0"
     inkscape:pageshadow="2"
     inkscape:zoom="31.678384"
     inkscape:cx="9.3552462"
     inkscape:cy="18.166344"
     inkscape:document-units="mm"
     inkscape:current-layer="layer1"
     inkscape:document-rotation="0"
     showgrid="false"
     units="px"
     inkscape:window-width="2560"
     inkscape:window-height="1377"
     inkscape:window-x="-8"
     inkscape:window-y="-8"
     inkscape:window-maximized="1" />
  <metadata
     id="metadata5">
    <rdf:RDF>
      <cc:Work
         rdf:about="">
        <dc:format>image/svg+xml</dc:format>
        <dc:type
           rdf:resource="http://purl.org/dc/dcmitype/StillImage" />
        <dc:title></dc:title>
      </cc:Work>
    </rdf:RDF>
  </metadata>
  <g
     inkscape:groupmode="layer"
     id="layer2"
     inkscape:label="图层 2" />
  <g
     inkscape:label="图层 1"
     inkscape:groupmode="layer"
     id="layer1">
    <rect
       style="fill:#eeeeee;fill-opacity:1;stroke:#0099a7;stroke-width:0.336427;stroke-linecap:butt;stroke-miterlimit:4;stroke-dasharray:none;stroke-opacity:1"
       id="rect927"
       width="3.5962272"
       height="6.5181613"
       x="2.4364054"
       y="0.79626787"
       rx="1.8353385"
       ry="0.89140022" />
    <text
       xml:space="preserve"
       style="font-style:normal;font-weight:normal;font-size:4.58611px;line-height:1.25;font-family:sans-serif;fill:#000000;fill-opacity:1;stroke:none;stroke-width:0.264583"
       x="2.6309345"
       y="5.7379427"
       id="text1048"><tspan
         sodipodi:role="line"
         id="tspan1046"
         x="2.6309345"
         y="5.7379427"
         style="font-size:4.58611px;stroke-width:0.264583">S</tspan></text>
    <g
       aria-label="S"
       id="text1052"
       style="font-style:normal;font-weight:normal;font-size:4.58611px;line-height:1.25;font-family:sans-serif;fill:#000000;fill-opacity:1;stroke:none;stroke-width:0.264583">
      <path
         d="m 5.5017319,4.7862353 q 0,0.1948201 -0.091812,0.3851616 -0.089572,0.1903415 -0.2530422,0.3224608 -0.1791449,0.143316 -0.4187512,0.2239312 -0.2373671,0.080615 -0.5732638,0.080615 -0.3605292,0 -0.6494003,-0.067179 Q 3.2288307,5.6640454 2.9310022,5.531926 V 4.9765768 h 0.03135 q 0.2530422,0.2104952 0.5844603,0.3247001 0.3314181,0.1142049 0.6225286,0.1142049 0.4120334,0 0.6404431,-0.1545125 0.2306491,-0.1545125 0.2306491,-0.4120333 0,-0.2216918 -0.1097262,-0.3269395 Q 4.8232205,4.4167489 4.6015287,4.3585268 4.4335803,4.3137405 4.2365209,4.2846295 4.0417008,4.2555184 3.8222482,4.2107322 3.3788645,4.1166811 3.1638906,3.8905106 2.951156,3.6621009 2.951156,3.2970931 q 0,-0.4187513 0.3538113,-0.6852294 0.3538112,-0.2687174 0.8979639,-0.2687174 0.3515719,0 0.6449217,0.067179 0.2933499,0.067179 0.5195203,0.165709 v 0.523999 h -0.03135 Q 5.1456814,2.9388032 4.8344171,2.8335556 4.5253921,2.7260686 4.2006919,2.7260686 q -0.3560505,0 -0.5732638,0.1477946 -0.2149739,0.1477945 -0.2149739,0.380683 0,0.2082559 0.107487,0.3269394 0.1074869,0.1186836 0.3784436,0.1813843 0.143316,0.03135 0.4075547,0.076137 0.2642388,0.044786 0.4478624,0.091812 0.3717257,0.09853 0.5598278,0.2978284 0.1881022,0.1992987 0.1881022,0.5575886 z"
         style="font-size:4.58611px;stroke-width:0.264583"
         id="path1054" />
    </g>
  </g>
</svg>
